# xmcd
#
# Track frame offsets:
#	150
#	13837
#	28343
#	46301
#	64927
#	80062
#	101398
#	116051
#	132047
#	147222
#
# Disc length: 2188 seconds
#
# Revision: 0
# Processed by: cddbd v1.4PL0 Copyright (c) Steve Scherf et al.
# Submitted via: dBpowerAMP V4.0
#
DISCID=8a088a0a
DTITLE=Damon Troy and Louisiana Beat - What Next
DYEAR=2002
DGENRE=Country/ Cajun
TTITLE0=Shortnin' Bread
TTITLE1=Try Me
TTITLE2=Heartbroken Little Boy
TTITLE3=Rest Your Love On Me
TTITLE4=Feel Like Groovin'
TTITLE5=Ya Ya
TTITLE6=Love You Back
TTITLE7=Don't Know What You Got
TTITLE8=Give Me Your Heart
TTITLE9=I Know A Little
EXTD=MTE Records
EXTT0=
EXTT1=
EXTT2=
EXTT3=
EXTT4=
EXTT5=
EXTT6=
EXTT7=
EXTT8=
EXTT9=
PLAYORDER=
